<svg width="36" height="36" viewBox="0 0 36 36" fill="none" xmlns="http://www.w3.org/2000/svg">
<path d="M0.28885 18.1493C0.166008 18.1371 0.159616 17.8892 0.281562 17.8701C3.07588 17.4316 9.721 16.0908 12.9058 12.9059C16.1124 9.69936 17.4497 2.98517 17.8788 0.225013C17.8977 0.103478 18.1402 0.108769 18.1531 0.231089C18.4477 3.03007 19.4779 9.87707 22.6906 13.0898C25.7109 16.1101 32.114 17.372 35.2646 17.8261C35.3897 17.8441 35.381 18.1548 35.2552 18.1661C32.0825 18.4525 25.6211 19.4061 22.5135 22.5136C19.3345 25.6926 18.4097 32.3815 18.1473 35.4689C18.1367 35.5938 17.8538 35.6053 17.835 35.4813C17.3565 32.3338 15.9711 25.4108 12.7288 22.3298C9.61048 19.3666 3.06506 18.4232 0.28885 18.1493Z" fill="#FF1717"/>
</svg>
