<svg width="36" height="36" viewBox="0 0 36 36" fill="none" xmlns="http://www.w3.org/2000/svg">
<path d="M0.3826 18.1493C0.259758 18.1371 0.253366 17.8892 0.375312 17.8701C3.16963 17.4316 9.81475 16.0908 12.9996 12.9059C16.2062 9.69936 17.5435 2.98517 17.9726 0.225013C17.9915 0.103478 18.234 0.108769 18.2468 0.231089C18.5415 3.03007 19.5716 9.87707 22.7843 13.0898C25.8047 16.1101 32.2077 17.372 35.3584 17.8261C35.4834 17.8441 35.4748 18.1548 35.349 18.1661C32.1763 18.4525 25.7148 19.4061 22.6073 22.5136C19.4283 25.6926 18.5034 32.3815 18.2411 35.4689C18.2305 35.5938 17.9476 35.6053 17.9287 35.4813C17.4503 32.3338 16.0648 25.4108 12.8225 22.3298C9.70423 19.3666 3.15881 18.4232 0.3826 18.1493Z" fill="white"/>
</svg>
