<svg width="508" height="214" viewBox="0 0 508 214" fill="none" xmlns="http://www.w3.org/2000/svg">
<rect width="508" height="214" rx="30" fill="white"/>
<g clip-path="url(#clip0_2_41)">
<path d="M45 134.08H53.3856V93.7585C53.3856 90.7364 53.3856 88.3504 53.3065 86.6008L81.0739 134.08H92.4656V78.4092H84.0009V116.266C84.0009 118.095 84.0801 120.64 84.1591 123.821L57.6575 78.4092H45V134.08Z" fill="#1B1B1B"/>
<path d="M101.922 134.08H110.307V109.267H137.442V102.189H110.307V85.4874H138.866V78.4092H101.922V134.08Z" fill="#1B1B1B"/>
<path d="M138.228 78.4092V85.4874H157.135V134.08H165.521V85.4874H184.349V78.4092H138.228Z" fill="#1B1B1B"/>
<path d="M257.015 78.4092V134.08H275.921C294.433 134.08 304.402 123.264 304.402 106.245C304.402 87.5551 293.484 78.4092 274.736 78.4092H257.015ZM274.893 85.4874C288.896 85.4874 295.699 92.8041 295.699 106.245C295.699 120.322 288.183 126.922 275.13 126.922H265.399V85.4874H274.893Z" fill="#1B1B1B"/>
<path d="M302.81 134.08H311.749L317.762 118.015H342.128L348.218 134.08H357.554L335.087 78.4092H325.197L302.81 134.08ZM320.452 110.937L328.125 90.4978C328.837 88.8276 329.47 87.1576 330.023 85.4874L331.763 90.4978L339.517 110.937H320.452Z" fill="#1B1B1B"/>
<path d="M368.39 110.619V134.08H376.854V110.619L396.711 78.4092H387.297L376.222 97.2577L372.662 103.461C371.396 100.996 370.288 98.9279 369.26 97.2577L358.342 78.4092H348.691L368.39 110.619Z" fill="#1B1B1B"/>
<path d="M461.817 78.5391H406.097V134.08H461.817V78.5391Z" fill="#1B1B1B"/>
<path d="M217.922 78.5391H217.45C202.194 78.5391 189.826 90.9724 189.826 106.31C189.826 121.647 202.194 134.08 217.45 134.08H217.922C233.179 134.08 245.546 121.647 245.546 106.31C245.546 90.9724 233.179 78.5391 217.922 78.5391Z" fill="#1B1B1B"/>
<path d="M286.163 60.5H45.34V67.146H286.163V60.5Z" fill="#1B1B1B"/>
<path d="M461.818 145.473H202.108V152.119H461.818V145.473Z" fill="#1B1B1B"/>
</g>
<defs>
<clipPath id="clip0_2_41">
<rect width="418" height="93" fill="white" transform="translate(45 60.5)"/>
</clipPath>
</defs>
</svg>
