<?xml version="1.0" encoding="UTF-8"?>
<svg width="467px" height="120px" viewBox="0 0 467 120" version="1.1" xmlns="http://www.w3.org/2000/svg" xmlns:xlink="http://www.w3.org/1999/xlink">
    <title>logo/on dark</title>
    <defs>
        <linearGradient x1="80.1491883%" y1="20.5698831%" x2="0%" y2="94.4792036%" id="linearGradient-1">
            <stop stop-color="#5FBFFF" offset="0%"></stop>
            <stop stop-color="#B090F5" offset="100%"></stop>
        </linearGradient>
        <linearGradient x1="0%" y1="94.0951088%" x2="112.081307%" y2="-8.91022163%" id="linearGradient-2">
            <stop stop-color="#68D7FA" offset="0%"></stop>
            <stop stop-color="#7EF1B3" offset="100%"></stop>
        </linearGradient>
    </defs>
    <g id="logo/on-dark" stroke="none" stroke-width="1" fill="none" fill-rule="evenodd">
        <path d="M178.288143,27.0013302 C186.797406,27.0013302 193.604816,29.6111442 200.36114,35.4610977 C200.914836,35.9507256 201.227031,36.592307 201.247672,37.2712372 C201.267797,37.9486326 200.999464,38.6004465 200.491695,39.1069581 L200.491695,39.1069581 L196.61015,43.0674698 C196.070903,43.738214 195.479537,43.9101209 195.075489,43.9346791 C194.631707,43.9638419 193.948489,43.8400279 193.211089,43.104307 C189.110233,39.5377488 183.550573,37.3868651 178.377932,37.3868651 C166.497473,37.3868651 156.832313,47.3912372 156.832313,59.6902605 C156.832313,71.9391442 166.536691,81.9036093 178.465656,81.9036093 C184.98306,81.9036093 189.441521,79.1664 193.288493,76.2076558 C194.301451,75.4217953 195.536816,75.3921209 196.431605,76.1375628 L196.431605,76.1375628 L200.574775,80.1784 C200.993787,80.5426791 201.253348,81.1044465 201.273989,81.7317023 C201.297211,82.4546326 201.004624,83.1918884 200.490662,83.7040279 C194.509925,89.4971907 186.83456,92.5551907 178.288143,92.5551907 C160.123525,92.5551907 145.34455,77.8919349 145.34455,59.8677953 C145.34455,41.7454233 160.123525,27.0013302 178.288143,27.0013302 Z M339.344545,27.0013302 C347.854324,27.0013302 354.660702,29.6111442 361.417026,35.4610977 C361.970721,35.9507256 362.282401,36.5917953 362.303042,37.2712372 C362.324199,37.9481209 362.055349,38.5994233 361.548096,39.1069581 L361.548096,39.1069581 L357.665519,43.0674698 C357.126272,43.738214 356.535423,43.9101209 356.130859,43.9346791 C355.684497,43.9638419 355.004891,43.8400279 354.266458,43.104307 C350.166119,39.5377488 344.605942,37.3868651 339.432269,37.3868651 C327.552327,37.3868651 317.887683,47.3912372 317.887683,59.6902605 C317.887683,71.9391442 327.593093,81.9036093 339.522058,81.9036093 C346.038946,81.9036093 350.497407,79.1664 354.344378,76.2076558 C355.357337,75.4217953 356.592702,75.3921209 357.48749,76.1375628 L357.48749,76.1375628 L361.63066,80.1784 C362.049157,80.5426791 362.308718,81.1044465 362.329875,81.7311907 C362.353612,82.4536093 362.061026,83.1908651 361.548096,83.7030047 C355.565811,89.4971907 347.889929,92.5551907 339.344545,92.5551907 C321.178894,92.5551907 306.400436,77.8919349 306.400436,59.8677953 C306.400436,41.7454233 321.178894,27.0013302 339.344545,27.0013302 Z M224.672398,27.8901814 C226.000648,27.8901814 227.165834,29.0505535 227.165834,30.3731116 L227.165834,30.3731116 L227.165834,89.1837163 C227.165834,90.5062744 226.000648,91.6676698 224.672398,91.6676698 L224.672398,91.6676698 L218.795898,91.6676698 C217.468164,91.6676698 216.302978,90.5062744 216.302978,89.1837163 L216.302978,89.1837163 L216.302978,30.3731116 C216.302978,29.0505535 217.468164,27.8901814 218.795898,27.8901814 L218.795898,27.8901814 Z M273.995006,27.8901814 C285.140128,27.8901814 294.206698,36.7756233 294.206698,47.6963209 C294.206698,55.6188791 289.303423,62.6077163 281.348887,66.1220884 L281.348887,66.1220884 L293.131817,87.9199953 C293.580759,88.7513907 293.575083,89.7383209 293.116852,90.4970651 C292.66791,91.2404605 291.864458,91.6676698 290.912391,91.6676698 L290.912391,91.6676698 L283.967202,91.6676698 C282.92483,91.6676698 282.126538,91.0245535 281.825179,90.4279953 L281.825179,90.4279953 L270.204798,67.3254372 L258.060134,67.3254372 L258.060134,89.1837163 C258.060134,90.5062744 256.894432,91.6676698 255.566182,91.6676698 L255.566182,91.6676698 L249.777923,91.6676698 C248.403746,91.6676698 247.285003,90.5528326 247.285003,89.1837163 L247.285003,89.1837163 L247.285003,30.3731116 C247.285003,29.004507 248.403746,27.8901814 249.777923,27.8901814 L249.777923,27.8901814 Z M385.728129,27.8901302 C387.056379,27.8901302 388.222081,29.0505023 388.222081,30.3730605 L388.222081,30.3730605 L388.222081,81.8152 L411.547472,81.8152 C412.92268,81.8152 414.04194,82.9295256 414.04194,84.2981302 L414.04194,84.2981302 L414.04194,89.1836651 C414.04194,90.553293 412.92268,91.6676186 411.547472,91.6676186 L411.547472,91.6676186 L379.851629,91.6676186 C378.477453,91.6676186 377.358709,90.553293 377.358709,89.1836651 L377.358709,89.1836651 L377.358709,30.3730605 C377.358709,29.0044558 378.477453,27.8901302 379.851629,27.8901302 L379.851629,27.8901302 Z M464.343139,27.8902326 C465.718347,27.8902326 466.837091,29.0045581 466.837091,30.3731628 L466.837091,30.3731628 L466.837091,35.3482326 C466.837091,36.7173488 465.718347,37.8316744 464.343139,37.8316744 L464.343139,37.8316744 L437.010809,37.8316744 L437.010809,54.363907 L459.980142,54.363907 C461.308908,54.363907 462.47461,55.5247907 462.47461,56.8473488 L462.47461,56.8473488 L462.47461,61.821907 C462.47461,63.1910233 461.355866,64.3053488 459.980142,64.3053488 L459.980142,64.3053488 L437.010809,64.3053488 L437.010809,81.8153023 L464.343139,81.8153023 C465.718347,81.8153023 466.837091,82.9296279 466.837091,84.2977209 L466.837091,84.2977209 L466.837091,89.1837674 C466.837091,90.5528837 465.718347,91.6677209 464.343139,91.6677209 L464.343139,91.6677209 L428.729629,91.6677209 C427.354937,91.6677209 426.236193,90.5528837 426.236193,89.1837674 L426.236193,89.1837674 L426.236193,30.3731628 C426.236193,29.0045581 427.354937,27.8902326 428.729629,27.8902326 L428.729629,27.8902326 Z M273.283407,38.0981814 L258.237647,38.0981814 L258.237647,58.0946465 L273.283407,58.0946465 C278.736766,58.0946465 283.343843,53.414786 283.343843,47.8743674 C283.343843,42.5749256 278.736766,38.0981814 273.283407,38.0981814 L273.283407,38.0981814 Z" id="Combined-Shape" fill="#FFFFFF"></path>
        <g id="Group" transform="translate(0.000000, -0.221740)">
            <path d="M105.157896,25.0405872 L99.1946494,30.9873028 C98.2921039,31.8874128 98.1631688,33.2908624 98.8625974,34.3556697 L98.8625974,34.3556697 C101.046987,37.6844037 102.78761,41.2676697 104.052234,45.0182752 L104.052234,45.0182752 L104.06813,45.0028624 C105.683792,49.789211 106.519662,54.8393394 106.519662,59.9383486 L106.519662,59.9383486 C106.519662,85.6971743 85.5067792,106.652917 59.6787013,106.652917 L59.6787013,106.652917 C51.9059481,106.652917 44.4396364,104.791046 37.7257403,101.217908 L37.7257403,101.217908 L47.8321299,91.1392294 C51.603039,92.5651376 55.6216623,93.3058349 59.6787013,93.3058349 L59.6787013,93.3058349 C78.1274545,93.3058349 93.1364675,78.3373211 93.1364675,59.9383486 L93.1364675,59.9383486 C93.1364675,58.7889908 93.0671429,57.6361101 92.9461558,56.4863119 L92.9461558,56.4863119 C92.5438961,52.6185688 91.4722338,48.868844 89.7894545,45.3978716 L89.7894545,45.3978716 C88.9858182,43.7407706 86.7842078,43.3638165 85.478961,44.6659817 L85.478961,44.6659817 L79.4260779,50.7029725 C78.7716883,51.355156 78.5014545,52.2988624 78.7120779,53.1976514 L78.7120779,53.1976514 L79.2198701,55.3651376 C79.574,56.8764771 79.7532727,58.4155596 79.7532727,59.9383486 L79.7532727,59.9383486 C79.7532727,70.9779083 70.7481299,79.9587523 59.6787013,79.9587523 L59.6787013,79.9587523 C56.1948052,79.9587523 52.7581558,79.0480734 49.7401039,77.3240367 L49.7401039,77.3240367 L47.0770649,75.8025688 C46.0283636,75.2036697 44.7085455,75.3789358 43.8541299,76.2310459 L43.8541299,76.2310459 L19.1767532,100.840514 C18.0331169,101.980624 18.1576364,103.864514 19.4408052,104.846532 L19.4408052,104.846532 L23.0757143,107.625688 C33.6616364,115.721394 46.3197922,120 59.6787013,120 L59.6787013,120 C92.8861039,120 119.902416,93.0561468 119.902416,59.9383486 L119.902416,59.9383486 C119.902416,49.4827156 117.16387,39.1820917 111.982623,30.1501651 L111.982623,30.1501651 L109.373455,25.6024954 C108.869636,24.7239633 107.963117,24.2584954 107.046442,24.2584954 L107.046442,24.2584954 C106.369532,24.2584954 105.687325,24.5121468 105.157896,25.0405872" id="Fill-1" fill="url(#linearGradient-1)"></path>
            <path d="M60.486,0.0973211009 C27.1337739,0.0973211009 0,27.0407339 0,60.1585321 L0,60.1585321 C0,70.6154862 2.7500087,80.9165505 7.95378261,89.947156 L7.95378261,89.947156 L10.5747391,94.4948257 C11.4546,96.0220183 13.5558,96.3007706 14.8086261,95.0567339 L14.8086261,95.0567339 L20.796913,89.1108991 C21.7029391,88.210789 21.8319913,86.8082202 21.1308522,85.7429725 L21.1308522,85.7429725 C18.9391826,82.4164404 17.1887739,78.8305321 15.9182087,75.0799266 L15.9182087,75.0799266 L15.9035739,75.0944587 C14.280887,70.3081101 13.4409391,65.258422 13.4409391,60.1585321 L13.4409391,60.1585321 C13.4409391,34.4005872 34.5456261,13.4439633 60.486,13.4439633 L60.486,13.4439633 C68.2916609,13.4439633 75.7904348,15.3058349 82.5339652,18.8794128 L82.5339652,18.8794128 L72.3840783,28.9580917 C68.5967739,27.5321835 64.5602348,26.7910459 60.486,26.7910459 L60.486,26.7910459 C41.9565913,26.7910459 26.8827652,41.76 26.8827652,60.1585321 L26.8827652,60.1585321 C26.8827652,60.7155963 26.9031652,61.2731009 26.9315478,61.8306055 L26.9315478,61.8306055 C26.9408609,62.0115963 26.9528348,62.1917064 26.9652522,62.3722569 L26.9652522,62.3722569 C26.9945217,62.8073394 27.0322174,63.242422 27.0792261,63.6770642 L27.0792261,63.6770642 C27.4903304,67.5126606 28.5657652,71.2438899 30.2461043,74.6972477 L30.2461043,74.6972477 C31.0523478,76.354789 33.2644174,76.7308624 34.5748957,75.4286972 L34.5748957,75.4286972 L40.6523217,69.394789 C41.309113,68.7421651 41.5800783,67.7984587 41.3689826,66.9001101 L41.3689826,66.9001101 L40.8589826,64.7317431 C40.5042,63.2221651 40.3241478,61.6839633 40.3241478,60.1585321 L40.3241478,60.1585321 C40.3241478,49.1194128 49.3684435,40.1381284 60.486,40.1381284 L60.486,40.1381284 C63.9846,40.1381284 67.4357478,41.0492477 70.4660348,42.772844 L70.4660348,42.772844 L73.1419826,44.2951927 C74.1948,44.8945321 75.5208,44.7183853 76.3793739,43.8667156 L76.3793739,43.8667156 L101.163157,19.2568073 C102.311765,18.1158165 102.187148,16.232367 100.8984,15.250789 L100.8984,15.250789 L97.2472435,12.471633 C86.6144087,4.37636697 73.9021043,0.0973211009 60.486,0.0973211009 Z" id="Fill-4" fill="url(#linearGradient-2)"></path>
        </g>
    </g>
</svg>