<svg xmlns="http://www.w3.org/2000/svg" width="813" height="169" fill="none" viewBox="0 0 813 169"><path fill="#4A49C2" d="M670.927 74.9932C675.486 45.6624 700.795 23.2167 731.336 23.2167C761.88 23.2167 787.187 45.6624 791.745 74.9932H670.927ZM791.745 94.0068H805.642H812.433C812.795 90.8863 813 87.7173 813 84.5C813 39.2973 776.437 2.65489 731.336 2.65489C686.235 2.65489 649.672 39.2973 649.672 84.5C649.672 129.703 686.235 166.348 731.336 166.348C764.611 166.348 793.218 146.391 805.943 117.777H782.637C771.74 134.619 752.853 145.783 731.336 145.783C700.795 145.783 675.486 123.338 670.927 94.0068H733.158H791.745ZM419.998 143.089H462.498V162.411H419.998H400.719H358.222V143.089H400.719V32.2609C400.719 28.7533 397.883 25.9109 394.384 25.9109H358.222V6.58885H394.384C408.53 6.58885 419.998 18.0823 419.998 32.2609V143.089ZM614.25 62.2781V162.411H594.971V62.2781C594.971 40.02 576.966 21.9769 554.758 21.9769C532.553 21.9769 514.547 40.02 514.547 62.2781V162.411H495.269V62.2781C495.269 29.349 521.903 2.65489 554.758 2.65489C587.616 2.65489 614.25 29.349 614.25 62.2781ZM301.095 6.58885H320.374V106.722C320.374 139.654 293.74 166.348 260.885 166.348C228.03 166.348 201.396 139.654 201.396 106.722V6.58885H220.675V106.722C220.675 128.98 238.677 147.026 260.885 147.026C283.093 147.026 301.095 128.98 301.095 106.722V6.58885ZM134.347 121.415L100.997 87.9895L47.4784 34.3503C57.7844 26.7334 70.5191 22.2249 84.3067 22.2249C118.625 22.2249 146.445 50.1073 146.445 84.5C146.445 98.3188 141.946 111.082 134.347 121.415ZM84.3067 146.775C49.9915 146.775 22.1718 118.896 22.1718 84.5C22.1718 70.6812 26.6702 57.9178 34.27 47.5885L121.138 134.65C110.832 142.267 98.0974 146.775 84.3067 146.775ZM155.701 142.817L148.264 135.363C159.339 121.393 165.971 103.728 165.971 84.5C165.971 39.2973 129.411 2.65489 84.3067 2.65489C65.1247 2.65489 47.4964 9.30119 33.561 20.4015L44.4282 31.2933L13.2054 -1.1275e-06L0 13.2382L20.3526 33.6367C9.27725 47.6067 2.6459 65.2717 2.6459 84.5C2.6459 129.703 39.2058 166.348 84.3067 166.348C103.492 166.348 121.117 159.699 135.055 148.601L155.408 169L168.616 155.762L155.701 142.817Z"/></svg>