<svg xmlns="http://www.w3.org/2000/svg" width="110" height="110" fill="none" viewBox="0 0 110 110"><circle cx="55" cy="55" r="55" fill="#FF1717"/><path fill="#fff" d="M18.68 61V49.8H23.048C24.0293 49.8 24.8667 49.9547 25.56 50.264C26.2533 50.5733 26.7867 51.0213 27.16 51.608C27.5333 52.1947 27.72 52.8933 27.72 53.704C27.72 54.5147 27.5333 55.2133 27.16 55.8C26.7867 56.376 26.2533 56.824 25.56 57.144C24.8667 57.4533 24.0293 57.608 23.048 57.608H19.56L20.28 56.856V61H18.68ZM20.28 57.016L19.56 56.216H23C24.024 56.216 24.7973 55.9973 25.32 55.56C25.8533 55.1227 26.12 54.504 26.12 53.704C26.12 52.904 25.8533 52.2853 25.32 51.848C24.7973 51.4107 24.024 51.192 23 51.192H19.56L20.28 50.392V57.016ZM32.4866 54.632H38.2466V55.992H32.4866V54.632ZM32.6306 59.608H39.1586V61H31.0306V49.8H38.9346V51.192H32.6306V59.608ZM44.9334 61V51.192H41.0934V49.8H50.3574V51.192H46.5174V61H44.9334ZM66.3489 49.8H67.9489V61H66.3489V49.8ZM59.9169 61H58.3169V49.8H59.9169V61ZM66.4929 56.008H59.7569V54.616H66.4929V56.008ZM72.2612 61V49.8H73.8612V61H72.2612ZM78.1744 61V49.8H79.4864L84.5104 58.264H83.8064L88.7664 49.8H90.0784L90.0944 61H88.5584L88.5424 52.216H88.9104L84.4944 59.64H83.7584L79.3104 52.216H79.7104V61H78.1744Z"/></svg>