<svg width="24" height="24" viewBox="0 0 24 24" fill="none" xmlns="http://www.w3.org/2000/svg">
<path d="M15 5C15 5.79565 14.6839 6.55871 14.1213 7.12132C13.5587 7.68393 12.7956 8 12 8C11.2043 8 10.4413 7.68393 9.87868 7.12132C9.31607 6.55871 9 5.79565 9 5C9 4.20435 9.31607 3.44129 9.87868 2.87868C10.4413 2.31607 11.2043 2 12 2C12.7956 2 13.5587 2.31607 14.1213 2.87868C14.6839 3.44129 15 4.20435 15 5ZM14 12C14 12.5304 13.7893 13.0391 13.4142 13.4142C13.0391 13.7893 12.5304 14 12 14C11.4696 14 10.9609 13.7893 10.5858 13.4142C10.2107 13.0391 10 12.5304 10 12C10 11.4696 10.2107 10.9609 10.5858 10.5858C10.9609 10.2107 11.4696 10 12 10C12.5304 10 13.0391 10.2107 13.4142 10.5858C13.7893 10.9609 14 11.4696 14 12ZM12 22C12.7956 22 13.5587 21.6839 14.1213 21.1213C14.6839 20.5587 15 19.7956 15 19C15 18.2043 14.6839 17.4413 14.1213 16.8787C13.5587 16.3161 12.7956 16 12 16C11.2043 16 10.4413 16.3161 9.87868 16.8787C9.31607 17.4413 9 18.2043 9 19C9 19.7956 9.31607 20.5587 9.87868 21.1213C10.4413 21.6839 11.2043 22 12 22ZM22 12C22 12.7956 21.6839 13.5587 21.1213 14.1213C20.5587 14.6839 19.7956 15 19 15C18.2043 15 17.4413 14.6839 16.8787 14.1213C16.3161 13.5587 16 12.7956 16 12C16 11.2043 16.3161 10.4413 16.8787 9.87868C17.4413 9.31607 18.2043 9 19 9C19.7956 9 20.5587 9.31607 21.1213 9.87868C21.6839 10.4413 22 11.2043 22 12ZM5 15C5.79565 15 6.55871 14.6839 7.12132 14.1213C7.68393 13.5587 8 12.7956 8 12C8 11.2043 7.68393 10.4413 7.12132 9.87868C6.55871 9.31607 5.79565 9 5 9C4.20435 9 3.44129 9.31607 2.87868 9.87868C2.31607 10.4413 2 11.2043 2 12C2 12.7956 2.31607 13.5587 2.87868 14.1213C3.44129 14.6839 4.20435 15 5 15Z" fill="#FFFAFA"/>
</svg>
