<svg width="44" height="45" viewBox="0 0 44 45" fill="none" xmlns="http://www.w3.org/2000/svg">
<path d="M5.5144 20.6747C5.5144 13.7914 5.5144 10.3488 7.65368 8.21139C9.79113 6.07211 13.2337 6.07211 20.117 6.07211H23.7676C30.6509 6.07211 34.0934 6.07211 36.2309 8.21139C38.3702 10.3488 38.3702 13.7914 38.3702 20.6747V24.3253C38.3702 31.2086 38.3702 34.6512 36.2309 36.7886C34.0934 38.9279 30.6509 38.9279 23.7676 38.9279H20.117C13.2337 38.9279 9.79113 38.9279 7.65368 36.7886C5.5144 34.6512 5.5144 31.2086 5.5144 24.3253V20.6747Z" stroke="white" stroke-width="1.82532"/>
<path d="M30.1563 17.024C31.6684 17.024 32.8942 15.7982 32.8942 14.2861C32.8942 12.7739 31.6684 11.5481 30.1563 11.5481C28.6441 11.5481 27.4183 12.7739 27.4183 14.2861C27.4183 15.7982 28.6441 17.024 30.1563 17.024Z" fill="white"/>
<path d="M21.9422 28.8886C25.4705 28.8886 28.3308 26.0283 28.3308 22.5C28.3308 18.9717 25.4705 16.1114 21.9422 16.1114C18.4139 16.1114 15.5536 18.9717 15.5536 22.5C15.5536 26.0283 18.4139 28.8886 21.9422 28.8886Z" stroke="white" stroke-width="1.82532"/>
</svg>
