<svg width="180" height="186" viewBox="0 0 180 186" fill="none" xmlns="http://www.w3.org/2000/svg">
<path d="M44.6951 158.247C44.6951 158.247 51.8389 173.565 56.3295 183.2C60.82 192.834 64.0226 164.492 64.0226 164.492C64.0226 164.492 65.9313 158.587 66.9169 155.233C68.2211 150.796 69.5433 148.716 72.5931 145.239C75.2845 142.171 78.3658 142.548 82.0647 140.823L106.606 129.38L140.62 113.521L167.944 100.78L178.561 95.8301C178.561 95.8301 180.745 92.8128 178.622 88.2611L166.416 62.0828L153.713 34.8379L143.2 12.2901C141.147 7.88715 142.336 3.08963 137.943 1.01567C132.657 -1.4798 125.886 4.44701 120.588 6.91727C108.574 12.5194 80.7266 27.6939 80.7266 27.6939C80.7266 27.6939 66.5932 34.2834 49.281 42.3555C30.4759 51.1237 3.53165 57.7117 1.12762 64.8081C-1.17073 71.5925 11.2301 86.4685 17.7018 100.348C22.9732 111.653 31.1984 129.298 31.1984 129.298L44.6951 158.247Z" stroke="#646464" stroke-opacity="0.5" stroke-width="0.843332"/>
</svg>
