<svg width="158" height="226" viewBox="0 0 158 226" fill="none" xmlns="http://www.w3.org/2000/svg">
<path d="M15.3728 86.5821C7.5731 80.6359 10.3609 71.6742 10.8489 61.8785C12.3875 30.9928 39.7347 10.938 70.6435 9.96489C96.618 9.14715 120.824 18.5477 128.128 43.4878C130.857 52.8066 130.237 58.7485 128.752 68.3444C125.289 90.7189 96.9453 116.816 96.9453 116.816C96.9453 116.816 79.8686 133.943 81.4564 147.149C82.8205 158.494 102.054 160.13 98.4457 170.972C94.5315 182.733 77.937 182.928 67.2268 176.689C58.0326 171.334 56.8559 162.672 55.4275 152.157L55.3954 151.921C52.92 133.704 65.7195 125.053 74.4468 108.872C79.4862 99.5283 83.7351 95.0802 88.4142 85.5514C93.3191 75.5629 99.9627 70.0334 98.6987 58.9777C97.1155 45.1297 88.3843 35.4823 74.7697 32.4968C57.9327 28.8047 41.8017 40.0955 37.9958 56.9072C35.8302 66.4729 47.7061 73.2865 42.5197 81.6108C36.8203 90.7584 23.944 93.1164 15.3728 86.5821Z" stroke="#646464" stroke-opacity="0.5" stroke-width="1.22463"/>
<circle cx="98.9015" cy="199.508" r="14.0148" transform="rotate(-10.3775 98.9015 199.508)" stroke="#646464" stroke-opacity="0.5" stroke-width="1.22463"/>
</svg>
