<svg width="128" height="135" viewBox="0 0 128 135" fill="none" xmlns="http://www.w3.org/2000/svg">
<path d="M25.0152 71.4192C19.5282 70.553 18.5077 65.3361 16.1165 60.3222C8.57712 44.5131 16.8151 27.1619 31.9602 18.3644C44.6875 10.9713 59.2816 9.14708 69.6293 19.6145C73.4957 23.5257 74.7847 26.6542 76.6252 31.8368C80.9165 43.9207 73.8067 64.5518 73.8067 64.5518C73.8067 64.5518 69.9008 77.6815 74.2437 83.8369C77.9748 89.1252 88.0021 84.768 89.1192 91.143C90.3309 98.0576 82.1117 102.618 75.0954 102.389C69.0722 102.192 66.1563 98.1908 62.6162 93.3334L62.5369 93.2245C56.4037 84.8097 60.4571 77.0552 60.4556 66.6425C60.4547 60.63 61.3764 57.2701 61.1461 51.262C60.9047 44.964 62.7292 40.4211 59.1259 35.2502C54.6125 28.7733 47.6658 26.3126 40.0766 28.486C30.6911 31.1737 25.687 41.1399 28.3111 50.5434C29.8042 55.8939 37.5563 56.0963 37.2098 61.6405C36.829 67.7329 31.0449 72.3712 25.0152 71.4192Z" stroke="#646464" stroke-opacity="0.5" stroke-width="0.693607"/>
<circle cx="97.0209" cy="105.244" r="7.93771" transform="rotate(-38.7259 97.0209 105.244)" stroke="#646464" stroke-opacity="0.5" stroke-width="0.693607"/>
</svg>
