<svg xmlns="http://www.w3.org/2000/svg" width="224" height="186" fill="none" viewBox="0 0 224 186"><path stroke="#646464" stroke-opacity=".5" stroke-width="1.026" d="M169.618 163.872C161.623 167.766 156.143 167.624 148.217 171.659C139.965 175.86 128.618 185.006 128.618 185.006L135.545 172.971C135.545 172.971 148.853 152.128 131.795 145.632C112.888 138.432 68.8228 140.762 48.638 139.382C33.0734 138.318 9.3888 136.654 2.26471 122.774C-3.4327 111.674 8.68311 86.8388 8.68311 86.8388C8.68311 86.8388 24.454 51.7463 39.7537 29.2118C47.4036 17.9445 54.9155 2.31197 76.1202 1.21247C97.3248 0.112979 218.27 95.8648 218.27 95.8648C218.27 95.8648 226.124 102.261 221.66 115.523C219.517 121.889 208.865 131.63 208.865 131.63C208.865 131.63 187.45 155.185 169.618 163.872Z"/></svg>